<svg width="1648" height="321" viewBox="0 0 1648 321" xmlns="http://www.w3.org/2000/svg"><g fill="none" fill-rule="evenodd"><path d="M484.230997,260.5945 C522.387995,260.5945 545.890494,236.262501 545.890494,203.912003 C545.890494,143.082006 458.239998,149.994505 458.239998,111.837507 C458.239998,98.5655077 467.917497,88.0585082 485.060497,88.0585082 C504.138996,88.0585082 512.986995,101.330508 517.410995,110.731507 L542.848994,99.3950076 C538.148494,85.8465083 522.387995,59.8555095 485.613497,59.8555095 C449.944998,59.8555095 427.548499,81.9755085 427.548499,112.114007 C427.548499,174.326504 514.645995,165.202004 514.645995,206.124002 C514.645995,222.437502 503.032996,232.115001 485.613497,232.115001 C464.322998,232.115001 452.986498,218.566502 447.732998,204.741503 L421.742,216.907502 C427.548499,234.050501 444.691499,260.5945 484.230997,260.5945 Z M615.09849,258.9355 C624.49949,258.9355 629.752989,257.8295 629.752989,257.8295 L629.752989,231.838501 C629.752989,231.838501 629.643303,231.847642 629.44886,231.862599 L629.227088,231.879372 C628.523916,231.931691 627.207038,232.021811 625.843466,232.074131 L625.361189,232.090904 C624.87882,232.105861 624.398944,232.115001 623.94649,232.115001 C607.90949,232.115001 599.337991,227.138001 599.337991,204.741503 L599.337991,137.552006 L628.646989,137.552006 L628.646989,112.667007 L599.337991,112.667007 L599.337991,82.5285084 L569.475992,82.5285084 L569.475992,112.667007 L553.438993,112.667007 L553.438993,137.552006 L569.475992,137.552006 L569.475992,200.041003 C569.475992,235.433001 579.982992,258.9355 615.09849,258.9355 Z M677.946987,257 L677.946987,194.787503 C677.946987,163.543005 687.071486,139.487506 718.592485,139.487506 L718.592485,109.072507 C698.131486,109.072507 682.923986,120.962007 677.393987,135.340006 L677.393987,112.667007 L647.808488,112.667007 L647.808488,257 L677.946987,257 Z M795.818981,260.5945 C830.104979,260.5945 849.183478,240.963001 856.095978,229.073501 L836.187979,214.142502 C830.657979,222.161002 818.21548,234.327001 796.371981,234.327001 C770.657482,234.327001 752.131983,217.737002 751.578983,192.022503 L860.243478,192.022503 C860.519978,189.534003 860.519978,187.045503 860.519978,184.557003 C860.519978,139.211006 834.805479,109.072507 791.118481,109.072507 C751.578983,109.072507 720.887484,140.593506 720.887484,185.386503 C720.887484,229.073501 750.749483,260.5945 795.818981,260.5945 Z M829.828479,171.285004 L752.684983,171.285004 C754.620483,148.612005 770.657482,134.234006 791.394981,134.234006 C812.13248,134.234006 828.722479,147.506005 829.828479,171.285004 Z M924.474474,260.5945 C942.446973,260.5945 954.059973,254.5115 961.525472,246.216501 L964.013972,257 L990.281471,257 L990.281471,163.819504 C990.281471,132.298506 975.626972,109.072507 932.769474,109.072507 C908.713975,109.072507 889.358976,118.197007 877.745976,125.662506 L889.358976,146.676505 C899.865975,140.870006 913.690975,135.340006 929.727974,135.340006 C948.806473,135.340006 960.419472,145.294005 960.419472,161.884005 L960.419472,175.432504 C954.889473,170.455504 942.446973,164.925504 925.856974,164.925504 C892.676976,164.925504 870.003977,184.557003 870.003977,212.483502 C870.003977,241.516001 894.059476,260.5945 924.474474,260.5945 Z M930.833974,236.539001 C912.584975,236.539001 900.142475,226.032001 900.142475,211.654002 C900.142475,197.276003 912.308475,186.769003 930.557474,186.769003 C948.806473,186.769003 961.248972,196.446503 961.248972,211.654002 C961.248972,226.585001 948.529973,236.539001 930.833974,236.539001 Z M1046.21747,257 L1046.21747,170.179004 C1046.21747,149.441505 1058.93647,136.169506 1075.24997,136.169506 C1092.39297,136.169506 1102.89997,148.059005 1102.89997,167.690504 L1102.89997,257 L1133.03846,257 L1133.03846,170.732004 C1133.03846,148.612005 1145.48096,136.169506 1162.34746,136.169506 C1180.31996,136.169506 1189.99746,148.059005 1189.99746,170.455504 L1189.99746,257 L1219.85946,257 L1219.85946,162.713505 C1219.85946,131.469006 1203.26946,109.072507 1170.64246,109.072507 C1150.73446,109.072507 1134.69746,117.920507 1126.12596,133.128006 C1119.21346,118.473507 1104.83547,109.072507 1084.65097,109.072507 C1065.01947,109.072507 1050.91797,120.409007 1045.66447,131.469006 L1045.66447,112.667007 L1045.66447,112.667007 L1016.07897,112.667007 L1016.07897,257 L1046.21747,257 Z M1276.62496,257 L1276.62496,57.0905097 L1246.48646,57.0905097 L1246.48646,257 L1276.62496,257 Z M1319.28895,95.8005078 C1329.79595,95.8005078 1338.09095,87.5055082 1338.09095,76.9985087 C1338.09095,66.4915092 1329.79595,58.1965096 1319.28895,58.1965096 C1308.78195,58.1965096 1300.48696,66.4915092 1300.48696,76.9985087 C1300.48696,87.5055082 1308.78195,95.8005078 1319.28895,95.8005078 Z M1334.49645,257 L1334.49645,112.667007 L1304.35795,112.667007 L1304.35795,257 L1334.49645,257 Z M1392.36795,257 L1392.36795,169.902504 C1392.36795,150.271005 1404.81045,136.169506 1423.88895,136.169506 C1440.47895,136.169506 1452.92145,147.782505 1452.92145,167.690504 L1452.92145,257 L1482.78345,257 L1482.78345,170.179004 C1482.78345,138.658006 1469.78795,109.072507 1432.46045,109.072507 C1413.10545,109.072507 1398.17445,120.132507 1391.81495,131.469006 L1391.81495,112.667007 L1362.22945,112.667007 L1362.22945,257 L1392.36795,257 Z M1575.77044,260.5945 C1610.05644,260.5945 1629.13494,240.963001 1636.04744,229.073501 L1616.13944,214.142502 C1610.60944,222.161002 1598.16694,234.327001 1576.32344,234.327001 C1550.60894,234.327001 1532.08344,217.737002 1531.53044,192.022503 L1640.19494,192.022503 C1640.47144,189.534003 1640.47144,187.045503 1640.47144,184.557003 C1640.47144,139.211006 1614.75694,109.072507 1571.06994,109.072507 C1531.53044,109.072507 1500.83894,140.593506 1500.83894,185.386503 C1500.83894,229.073501 1530.70094,260.5945 1575.77044,260.5945 Z M1609.77994,171.285004 L1532.63644,171.285004 C1534.57194,148.612005 1550.60894,134.234006 1571.34644,134.234006 C1592.08394,134.234006 1608.67394,147.506005 1609.77994,171.285004 Z" fill="#000" fill-rule="nonzero"/><path d="M160.5,0 C32.0873672,0 0,32.0873672 0,160.5 C0,288.912633 32.0873672,321 160.5,321 C288.912633,321 321,288.912633 321,160.5 C321,32.0873672 288.912633,0 160.5,0 Z" fill="#22D3EE"/><g transform="rotate(-40 200.33 46.407)" fill="#FFF"><path d="M69.2121108,198.348076 C68.5085119,198.348055 67.9381324,197.777675 67.9381324,197.074076 C67.9381324,196.88095 67.98204,196.690351 68.0665358,196.51669 C70.6888453,191.127152 72,185.737614 72,180.348076 C72,174.95853 70.6888411,169.568983 68.0665232,164.179436 C67.758723,163.546744 68.0220608,162.784311 68.654737,162.476479 C68.8283963,162.391984 69.0189931,162.348076 69.2121173,162.348076 L144,162.348076 C150.548519,162.348076 155.871904,157.10265 155.997723,150.584229 L156,150.348076 L156,138.348076 C156,131.799557 150.754574,126.476173 144.236153,126.350354 L144,126.348076 L48,126.348076 C21.490332,126.348076 -7.81597009e-13,104.857744 -7.81597009e-13,78.3480762 L-7.67386155e-13,66.3480762 C-7.67386155e-13,39.8384082 21.490332,18.3480762 48,18.3480762 L122.787889,18.3480762 C123.491488,18.3480978 124.061868,18.9184774 124.061868,19.6220762 C124.061868,19.8152024 124.01796,20.005801 123.933464,20.1794621 C121.311155,25.5690001 120,30.9585382 120,36.3480762 C120,41.7376229 121.311159,47.1271695 123.933477,52.5167162 C124.241277,53.1494082 123.977939,53.9118413 123.345263,54.2196739 C123.171604,54.3041689 122.981007,54.3480762 122.787883,54.3480762 L48,54.3480762 C41.4514808,54.3480762 36.1280965,59.593502 36.0022773,66.1119232 L36,66.3480762 L36,78.3480762 C36,84.8965954 41.2454258,90.2199797 47.763847,90.3457989 L48,90.3480762 L144,90.3480762 C170.509668,90.3480762 192,111.838408 192,138.348076 L192,150.348076 C192,176.857744 170.509668,198.348076 144,198.348076 L69.2121108,198.348076 Z"/><circle stroke="#22D3EE" stroke-width="12.74" cx="156" cy="36" r="29.63"/><circle stroke="#22D3EE" stroke-width="12.74" cx="36" cy="180" r="29.63"/></g></g></svg>