<svg xmlns="http://www.w3.org/2000/svg" width="1648" height="321" viewBox="0 0 1648 321"><g fill="none" fill-rule="evenodd"><path fill="#000" fill-rule="nonzero" d="M484.230997,260.5945 C522.387995,260.5945 545.890494,236.262501 545.890494,203.912003 C545.890494,143.082006 458.239998,149.994505 458.239998,111.837507 C458.239998,98.5655077 467.917497,88.0585082 485.060497,88.0585082 C504.138996,88.0585082 512.986995,101.330508 517.410995,110.731507 L542.848994,99.3950076 C538.148494,85.8465083 522.387995,59.8555095 485.613497,59.8555095 C449.944998,59.8555095 427.548499,81.9755085 427.548499,112.114007 C427.548499,174.326504 514.645995,165.202004 514.645995,206.124002 C514.645995,222.437502 503.032996,232.115001 485.613497,232.115001 C464.322998,232.115001 452.986498,218.566502 447.732998,204.741503 L421.742,216.907502 C427.548499,234.050501 444.691499,260.5945 484.230997,260.5945 Z M615.09849,258.9355 C624.49949,258.9355 629.752989,257.8295 629.752989,257.8295 L629.752989,231.838501 C629.752989,231.838501 629.643303,231.847642 629.44886,231.862599 L629.227088,231.879372 C628.523916,231.931691 627.207038,232.021811 625.843466,232.074131 L625.361189,232.090904 C624.87882,232.105861 624.398944,232.115001 623.94649,232.115001 C607.90949,232.115001 599.337991,227.138001 599.337991,204.741503 L599.337991,137.552006 L628.646989,137.552006 L628.646989,112.667007 L599.337991,112.667007 L599.337991,82.5285084 L569.475992,82.5285084 L569.475992,112.667007 L553.438993,112.667007 L553.438993,137.552006 L569.475992,137.552006 L569.475992,200.041003 C569.475992,235.433001 579.982992,258.9355 615.09849,258.9355 Z M677.946987,257 L677.946987,194.787503 C677.946987,163.543005 687.071486,139.487506 718.592485,139.487506 L718.592485,109.072507 C698.131486,109.072507 682.923986,120.962007 677.393987,135.340006 L677.393987,112.667007 L647.808488,112.667007 L647.808488,257 L677.946987,257 Z M795.818981,260.5945 C830.104979,260.5945 849.183478,240.963001 856.095978,229.073501 L836.187979,214.142502 C830.657979,222.161002 818.21548,234.327001 796.371981,234.327001 C770.657482,234.327001 752.131983,217.737002 751.578983,192.022503 L860.243478,192.022503 C860.519978,189.534003 860.519978,187.045503 860.519978,184.557003 C860.519978,139.211006 834.805479,109.072507 791.118481,109.072507 C751.578983,109.072507 720.887484,140.593506 720.887484,185.386503 C720.887484,229.073501 750.749483,260.5945 795.818981,260.5945 Z M829.828479,171.285004 L752.684983,171.285004 C754.620483,148.612005 770.657482,134.234006 791.394981,134.234006 C812.13248,134.234006 828.722479,147.506005 829.828479,171.285004 Z M924.474474,260.5945 C942.446973,260.5945 954.059973,254.5115 961.525472,246.216501 L964.013972,257 L990.281471,257 L990.281471,163.819504 C990.281471,132.298506 975.626972,109.072507 932.769474,109.072507 C908.713975,109.072507 889.358976,118.197007 877.745976,125.662506 L889.358976,146.676505 C899.865975,140.870006 913.690975,135.340006 929.727974,135.340006 C948.806473,135.340006 960.419472,145.294005 960.419472,161.884005 L960.419472,175.432504 C954.889473,170.455504 942.446973,164.925504 925.856974,164.925504 C892.676976,164.925504 870.003977,184.557003 870.003977,212.483502 C870.003977,241.516001 894.059476,260.5945 924.474474,260.5945 Z M930.833974,236.539001 C912.584975,236.539001 900.142475,226.032001 900.142475,211.654002 C900.142475,197.276003 912.308475,186.769003 930.557474,186.769003 C948.806473,186.769003 961.248972,196.446503 961.248972,211.654002 C961.248972,226.585001 948.529973,236.539001 930.833974,236.539001 Z M1046.21747,257 L1046.21747,170.179004 C1046.21747,149.441505 1058.93647,136.169506 1075.24997,136.169506 C1092.39297,136.169506 1102.89997,148.059005 1102.89997,167.690504 L1102.89997,257 L1133.03846,257 L1133.03846,170.732004 C1133.03846,148.612005 1145.48096,136.169506 1162.34746,136.169506 C1180.31996,136.169506 1189.99746,148.059005 1189.99746,170.455504 L1189.99746,257 L1219.85946,257 L1219.85946,162.713505 C1219.85946,131.469006 1203.26946,109.072507 1170.64246,109.072507 C1150.73446,109.072507 1134.69746,117.920507 1126.12596,133.128006 C1119.21346,118.473507 1104.83547,109.072507 1084.65097,109.072507 C1065.01947,109.072507 1050.91797,120.409007 1045.66447,131.469006 L1045.66447,112.667007 L1045.66447,112.667007 L1016.07897,112.667007 L1016.07897,257 L1046.21747,257 Z M1276.62496,257 L1276.62496,57.0905097 L1246.48646,57.0905097 L1246.48646,257 L1276.62496,257 Z M1319.28895,95.8005078 C1329.79595,95.8005078 1338.09095,87.5055082 1338.09095,76.9985087 C1338.09095,66.4915092 1329.79595,58.1965096 1319.28895,58.1965096 C1308.78195,58.1965096 1300.48696,66.4915092 1300.48696,76.9985087 C1300.48696,87.5055082 1308.78195,95.8005078 1319.28895,95.8005078 Z M1334.49645,257 L1334.49645,112.667007 L1304.35795,112.667007 L1304.35795,257 L1334.49645,257 Z M1392.36795,257 L1392.36795,169.902504 C1392.36795,150.271005 1404.81045,136.169506 1423.88895,136.169506 C1440.47895,136.169506 1452.92145,147.782505 1452.92145,167.690504 L1452.92145,257 L1482.78345,257 L1482.78345,170.179004 C1482.78345,138.658006 1469.78795,109.072507 1432.46045,109.072507 C1413.10545,109.072507 1398.17445,120.132507 1391.81495,131.469006 L1391.81495,112.667007 L1362.22945,112.667007 L1362.22945,257 L1392.36795,257 Z M1575.77044,260.5945 C1610.05644,260.5945 1629.13494,240.963001 1636.04744,229.073501 L1616.13944,214.142502 C1610.60944,222.161002 1598.16694,234.327001 1576.32344,234.327001 C1550.60894,234.327001 1532.08344,217.737002 1531.53044,192.022503 L1640.19494,192.022503 C1640.47144,189.534003 1640.47144,187.045503 1640.47144,184.557003 C1640.47144,139.211006 1614.75694,109.072507 1571.06994,109.072507 C1531.53044,109.072507 1500.83894,140.593506 1500.83894,185.386503 C1500.83894,229.073501 1530.70094,260.5945 1575.77044,260.5945 Z M1609.77994,171.285004 L1532.63644,171.285004 C1534.57194,148.612005 1550.60894,134.234006 1571.34644,134.234006 C1592.08394,134.234006 1608.67394,147.506005 1609.77994,171.285004 Z"/><path fill="#2563EB" d="M160.5,0 C32.0873672,0 0,32.0873672 0,160.5 C0,288.912633 32.0873672,321 160.5,321 C288.912633,321 321,288.912633 321,160.5 C321,32.0873672 288.912633,0 160.5,0 Z"/><g fill="#FFF" transform="translate(64 65)"><path d="M69.2121108,180 C68.5085119,179.999978 67.9381324,179.429599 67.9381324,178.726 C67.9381324,178.532874 67.98204,178.342275 68.0665358,178.168614 C70.6888453,172.779076 72,167.389538 72,162 C72,156.610453 70.6888411,151.220907 68.0665232,145.83136 C67.758723,145.198668 68.0220608,144.436235 68.654737,144.128402 C68.8283963,144.043907 69.0189931,144 69.2121173,144 L96,144 L96,143.999 L144,144 C150.548519,144 155.871904,138.754574 155.997723,132.236153 L156,132 L156,120 C156,113.451481 150.754574,108.128096 144.236153,108.002277 L144,108 L96,107.999 L96.0003954,108.000594 L48,108 C21.490332,108 -1.90425453e-12,86.509668 -1.90425453e-12,60 L-1.89004368e-12,48 C-1.89004368e-12,21.490332 21.490332,-5.40012479e-13 48,-5.25801624e-13 L96,-9.66338121e-13 L96.0003954,36.0005938 L48,36 C41.4514808,36 36.1280965,41.2454258 36.0022773,47.763847 L36,48 L36,60 C36,66.5485192 41.2454258,71.8719035 47.763847,71.9977227 L48,72 L96.0003954,72.0005938 L144,72 C170.509668,72 192,93.490332 192,120 L192,132 C192,158.509668 170.509668,180 144,180 L69.2121108,180 Z M122.787889,4.2845727e-12 C123.491488,2.15873181e-05 124.061868,0.570401168 124.061868,1.27400004 C124.061868,1.46712616 124.01796,1.65772481 123.933464,1.83138588 C121.311155,7.22092392 120,12.610462 120,18 C120,23.3895467 121.311159,28.7790933 123.933477,34.16864 C124.241277,34.801332 123.977939,35.5637651 123.345263,35.8715977 C123.171604,35.9560927 122.981007,36 122.787883,36 L96,36 L96,4.2845727e-12 L122.787889,4.2845727e-12 Z" transform="rotate(-40 104.242 92.652)"/><circle cx="96" r="24"/><circle cx="96" cy="192" r="24"/></g></g></svg>