<svg xmlns="http://www.w3.org/2000/svg" width="1648" height="321" viewBox="0 0 1648 321"><defs><clipPath id="a"><path d="M63.8714969,2.76499987 C100.645995,2.76499987 116.406494,28.7559986 121.106994,42.304498 L95.6689954,53.6409974 C91.2449956,44.2399979 82.396996,30.9679985 63.3184969,30.9679985 C46.1754978,30.9679985 36.4979982,41.474998 36.4979982,54.7469974 C36.4979982,92.9039955 124.148494,85.9914958 124.148494,146.821493 C124.148494,179.171991 100.645995,203.50399 62.488997,203.50399 C22.9494989,203.50399 5.80649972,176.959991 0,159.816992 L25.9909987,147.650993 C31.2444985,161.475992 42.5809979,175.024492 63.8714969,175.024492 C81.2909961,175.024492 92.9039955,165.346992 92.9039955,149.033493 C92.9039955,108.111495 5.80649972,117.235994 5.80649972,55.0234973 C5.80649972,24.8849988 28.2029986,2.76499987 63.8714969,2.76499987 Z M369.376481,51.9819975 C413.063479,51.9819975 438.777978,82.120496 438.777978,127.466494 C438.777978,129.954994 438.777978,132.443494 438.501478,134.931993 L329.836983,134.931993 C330.389983,160.646492 348.915482,177.236491 374.629981,177.236491 C396.47348,177.236491 408.915979,165.070492 414.445979,157.051992 L434.353978,171.982992 C427.441478,183.872491 408.362979,203.50399 374.076981,203.50399 C329.007483,203.50399 299.145485,171.982992 299.145485,128.295994 C299.145485,83.502996 329.836983,51.9819975 369.376481,51.9819975 Z M511.027474,51.9819975 C553.884972,51.9819975 568.539471,75.2079964 568.539471,106.728995 L568.539471,199.90949 L542.271973,199.90949 L539.783473,189.125991 C532.317973,197.42099 520.704974,203.50399 502.732475,203.50399 C472.317476,203.50399 448.261977,184.425491 448.261977,155.392992 C448.261977,127.466494 470.934976,107.834995 504.114974,107.834995 C520.704974,107.834995 533.147473,113.364995 538.677473,118.341994 L538.677473,104.793495 C538.677473,88.2034957 527.064473,78.2494962 507.985974,78.2494962 C491.948975,78.2494962 478.123976,83.779496 467.616976,89.5859957 L456.003977,68.5719967 C467.616976,61.106497 486.971975,51.9819975 511.027474,51.9819975 Z M1149.32794,51.9819975 C1193.01494,51.9819975 1218.72944,82.120496 1218.72944,127.466494 C1218.72944,129.954994 1218.72944,132.443494 1218.45294,134.931993 L1109.78844,134.931993 C1110.34144,160.646492 1128.86694,177.236491 1154.58144,177.236491 C1176.42494,177.236491 1188.86744,165.070492 1194.39744,157.051992 L1214.30544,171.982992 C1207.39294,183.872491 1188.31444,203.50399 1154.02844,203.50399 C1108.95894,203.50399 1079.09695,171.982992 1079.09695,128.295994 C1079.09695,83.502996 1109.78844,51.9819975 1149.32794,51.9819975 Z M177.595991,25.4379988 L177.595991,55.5764973 L206.90499,55.5764973 L206.90499,80.4614961 L177.595991,80.4614961 L177.595991,147.650993 C177.595991,170.047492 186.167491,175.024492 202.20449,175.024492 C202.656944,175.024492 203.13682,175.015351 203.619189,175.000394 L204.101466,174.983621 C205.465039,174.931302 206.781916,174.841182 207.485088,174.788862 L207.70686,174.772089 C207.901304,174.757132 208.01099,174.747992 208.01099,174.747992 L208.01099,200.73899 L207.994086,200.742479 C207.662039,200.810326 202.44926,201.84499 193.35649,201.84499 C158.240992,201.84499 147.733993,178.342491 147.733993,142.950493 L147.733993,80.4614961 L131.696993,80.4614961 L131.696993,55.5764973 L147.733993,55.5764973 L147.733993,25.4379988 L177.595991,25.4379988 Z M296.850485,51.9819975 L296.850485,82.396996 C265.329487,82.396996 256.204987,106.452495 256.204987,137.696993 L256.204987,199.90949 L226.066489,199.90949 L226.066489,55.5764973 L255.651987,55.5764973 L255.651987,78.2494962 C261.181987,63.8714969 276.389486,51.9819975 296.850485,51.9819975 Z M748.900462,51.9819975 C781.527461,51.9819975 798.11746,74.3784964 798.11746,105.622995 L798.11746,199.90949 L768.255461,199.90949 L768.255461,113.364995 C768.255461,90.9684956 758.577962,79.0789962 740.605463,79.0789962 C723.738964,79.0789962 711.296464,91.5214956 711.296464,113.641495 L711.296464,199.90949 L681.157966,199.90949 L681.157966,110.599995 C681.157966,90.9684956 670.650966,79.0789962 653.507967,79.0789962 C637.194468,79.0789962 624.475468,92.3509955 624.475468,113.088495 L624.475468,199.90949 L594.33697,199.90949 L594.33697,55.5764973 L623.922468,55.5764973 L623.922468,74.3784964 C629.175968,63.3184969 643.277467,51.9819975 662.908967,51.9819975 C683.093466,51.9819975 697.471465,61.382997 704.383965,76.0374963 C712.955464,60.8299971 728.992463,51.9819975 748.900462,51.9819975 Z M854.882957,0 L854.882957,199.90949 L824.744458,199.90949 L824.744458,0 L854.882957,0 Z M912.754454,55.5764973 L912.754454,199.90949 L882.615955,199.90949 L882.615955,55.5764973 L912.754454,55.5764973 Z M1010.71845,51.9819975 C1048.04595,51.9819975 1061.04145,81.5674961 1061.04145,113.088495 L1061.04145,199.90949 L1031.17945,199.90949 L1031.17945,110.599995 C1031.17945,90.6919956 1018.73695,79.0789962 1002.14695,79.0789962 C983.06845,79.0789962 970.625951,93.1804955 970.625951,112.811995 L970.625951,199.90949 L940.487452,199.90949 L940.487452,55.5764973 L970.072951,55.5764973 L970.072951,74.3784964 C976.432451,63.041997 991.36345,51.9819975 1010.71845,51.9819975 Z M508.815474,129.678494 C490.566475,129.678494 478.400476,140.185493 478.400476,154.563493 C478.400476,168.941492 490.842975,179.448491 509.091974,179.448491 C526.787973,179.448491 539.506973,169.494492 539.506973,154.563493 C539.506973,139.355993 527.064473,129.678494 508.815474,129.678494 Z M369.652981,77.1434963 C348.915482,77.1434963 332.878483,91.5214956 330.942983,114.194494 L408.086479,114.194494 C406.980479,90.4154956 390.39048,77.1434963 369.652981,77.1434963 Z M1149.60444,77.1434963 C1128.86694,77.1434963 1112.82994,91.5214956 1110.89444,114.194494 L1188.03794,114.194494 C1186.93194,90.4154956 1170.34194,77.1434963 1149.60444,77.1434963 Z M897.546955,1.10599995 C908.053954,1.10599995 916.348954,9.40099955 916.348954,19.907999 C916.348954,30.4149985 908.053954,38.7099981 897.546955,38.7099981 C887.039955,38.7099981 878.744956,30.4149985 878.744956,19.907999 C878.744956,9.40099955 887.039955,1.10599995 897.546955,1.10599995 Z"/></clipPath><clipPath id="b"><path d="M160.5,0 C288.912633,0 321,32.0873672 321,160.5 C321,288.912633 288.912633,321 160.5,321 C32.0873672,321 0,288.912633 0,160.5 C0,32.0873672 32.0873672,0 160.5,0 Z"/></clipPath><clipPath id="c"><path d="M122.791855,2.48689958e-12 C123.495464,0.00162679206 124.064535,0.573330546 124.062912,1.27693946 C124.062467,1.46965358 124.018309,1.65975568 123.932913,1.83251953 C121.310971,7.22167969 120,12.6108398 120,18 C120,23.3891602 121.310971,28.7783203 123.932913,34.1674805 C124.242451,34.799347 123.980129,35.5621544 123.347849,35.8708448 C123.174671,35.9553931 122.984569,35.999552 122.791855,36 L96,36 L48,36 C41.4514808,36 36.1280965,41.2454258 36.0022773,47.763847 L36,48 L36,60 C36,66.5485192 41.2454258,71.8719035 47.763847,71.9977227 L48,72 L96.0003954,72.0005938 L144,72 C170.509668,72 192,93.490332 192,120 L192,132 C192,158.509668 170.509668,180 144,180 L69.2081451,180 C68.5045362,179.998373 67.9354645,179.426669 67.9370879,178.723061 C67.9375326,178.530346 67.9816914,178.340244 68.0670874,178.16748 C70.6890291,172.77832 72,167.38916 72,162 C72,156.61084 70.6890291,151.22168 68.0670874,145.83252 C67.7575494,145.200653 68.0198709,144.437846 68.6521513,144.129155 C68.8253289,144.044607 69.015431,144.000448 69.2081451,144 L144,144 C150.548519,144 155.871904,138.754574 155.997723,132.236153 L156,132 L156,120 C156,113.451481 150.754574,108.128096 144.236153,108.002277 L144,108 L96,107.999 L48,108 C21.490332,108 -1.42108547e-14,86.509668 -1.42108547e-14,60 L0,48 C0,21.490332 21.490332,-1.42108547e-14 48,0 L122.791855,2.48689958e-12 Z"/></clipPath><clipPath id="d"><path d="M24,0 C37.254834,0 48,10.745166 48,24 C48,37.254834 37.254834,48 24,48 C10.745166,48 0,37.254834 0,24 C0,10.745166 10.745166,0 24,0 Z"/></clipPath><clipPath id="e"><path d="M24,0 C37.254834,0 48,10.745166 48,24 C48,37.254834 37.254834,48 24,48 C10.745166,48 0,37.254834 0,24 C0,10.745166 10.745166,0 24,0 Z"/></clipPath></defs><g clip-path="url(#a)" transform="translate(421.742 57.09)"><polygon points="0 0 1218.729 0 1218.729 203.504 0 203.504 0 0"/></g><g clip-path="url(#b)"><polygon fill="#2563EB" points="0 0 321 0 321 321 0 321 0 0"/></g><g transform="translate(64 65)"><g clip-path="url(#c)" transform="rotate(-40 104.242 92.652)"><polygon fill="#FFF" points="0 0 192 0 192 180 0 180 0 0"/></g><g clip-path="url(#d)" transform="translate(72 -24)"><polygon fill="#FFF" points="0 0 48 0 48 48 0 48 0 0"/></g><g clip-path="url(#e)" transform="translate(72 168)"><polygon fill="#FFF" points="0 0 48 0 48 48 0 48 0 0"/></g></g></svg>